<?xml version="1.0" encoding="UTF-8"?>
<svg width="512" height="512" viewBox="72 32 120 112" xmlns="http://www.w3.org/2000/svg" shape-rendering="crispEdges">
  <rect x="104" y="32" width="8" height="8" fill="#000000"/>
  <rect x="112" y="32" width="8" height="8" fill="#000000"/>
  <rect x="120" y="32" width="8" height="8" fill="#000000"/>
  <rect x="128" y="32" width="8" height="8" fill="#000000"/>
  <rect x="136" y="32" width="8" height="8" fill="#000000"/>
  <rect x="144" y="32" width="8" height="8" fill="#000000"/>
  <rect x="152" y="32" width="8" height="8" fill="#000000"/>
  <rect x="88" y="40" width="8" height="8" fill="#000000"/>
  <rect x="96" y="40" width="8" height="8" fill="#000000"/>
  <rect x="104" y="40" width="8" height="8" fill="#d91b1b"/>
  <rect x="112" y="40" width="8" height="8" fill="#d91b1b"/>
  <rect x="120" y="40" width="8" height="8" fill="#d91b1b"/>
  <rect x="128" y="40" width="8" height="8" fill="#d91b1b"/>
  <rect x="136" y="40" width="8" height="8" fill="#d91b1b"/>
  <rect x="144" y="40" width="8" height="8" fill="#d91b1b"/>
  <rect x="152" y="40" width="8" height="8" fill="#d91b1b"/>
  <rect x="160" y="40" width="8" height="8" fill="#000000"/>
  <rect x="168" y="40" width="8" height="8" fill="#000000"/>
  <rect x="80" y="48" width="8" height="8" fill="#000000"/>
  <rect x="88" y="48" width="8" height="8" fill="#d91b1b"/>
  <rect x="96" y="48" width="8" height="8" fill="#d91b1b"/>
  <rect x="104" y="48" width="8" height="8" fill="#d91b1b"/>
  <rect x="112" y="48" width="8" height="8" fill="#d91b1b"/>
  <rect x="120" y="48" width="8" height="8" fill="#d91b1b"/>
  <rect x="128" y="48" width="8" height="8" fill="#d91b1b"/>
  <rect x="136" y="48" width="8" height="8" fill="#d91b1b"/>
  <rect x="144" y="48" width="8" height="8" fill="#d91b1b"/>
  <rect x="152" y="48" width="8" height="8" fill="#d91b1b"/>
  <rect x="160" y="48" width="8" height="8" fill="#d91b1b"/>
  <rect x="168" y="48" width="8" height="8" fill="#d91b1b"/>
  <rect x="176" y="48" width="8" height="8" fill="#000000"/>
  <rect x="80" y="56" width="8" height="8" fill="#000000"/>
  <rect x="88" y="56" width="8" height="8" fill="#d91b1b"/>
  <rect x="96" y="56" width="8" height="8" fill="#d91b1b"/>
  <rect x="104" y="56" width="8" height="8" fill="#d91b1b"/>
  <rect x="112" y="56" width="8" height="8" fill="#d91b1b"/>
  <rect x="120" y="56" width="8" height="8" fill="#d91b1b"/>
  <rect x="128" y="56" width="8" height="8" fill="#d91b1b"/>
  <rect x="136" y="56" width="8" height="8" fill="#d91b1b"/>
  <rect x="144" y="56" width="8" height="8" fill="#d91b1b"/>
  <rect x="152" y="56" width="8" height="8" fill="#d91b1b"/>
  <rect x="160" y="56" width="8" height="8" fill="#d91b1b"/>
  <rect x="168" y="56" width="8" height="8" fill="#d91b1b"/>
  <rect x="176" y="56" width="8" height="8" fill="#000000"/>
  <rect x="72" y="64" width="8" height="8" fill="#000000"/>
  <rect x="80" y="64" width="8" height="8" fill="#d91b1b"/>
  <rect x="88" y="64" width="8" height="8" fill="#000000"/>
  <rect x="96" y="64" width="8" height="8" fill="#000000"/>
  <rect x="104" y="64" width="8" height="8" fill="#d91b1b"/>
  <rect x="112" y="64" width="8" height="8" fill="#d91b1b"/>
  <rect x="120" y="64" width="8" height="8" fill="#d91b1b"/>
  <rect x="128" y="64" width="8" height="8" fill="#d91b1b"/>
  <rect x="136" y="64" width="8" height="8" fill="#d91b1b"/>
  <rect x="144" y="64" width="8" height="8" fill="#d91b1b"/>
  <rect x="152" y="64" width="8" height="8" fill="#d91b1b"/>
  <rect x="160" y="64" width="8" height="8" fill="#000000"/>
  <rect x="168" y="64" width="8" height="8" fill="#000000"/>
  <rect x="176" y="64" width="8" height="8" fill="#d91b1b"/>
  <rect x="184" y="64" width="8" height="8" fill="#000000"/>
  <rect x="72" y="72" width="8" height="8" fill="#000000"/>
  <rect x="80" y="72" width="8" height="8" fill="#000000"/>
  <rect x="88" y="72" width="8" height="8" fill="#ffffff"/>
  <rect x="96" y="72" width="8" height="8" fill="#ffffff"/>
  <rect x="104" y="72" width="8" height="8" fill="#000000"/>
  <rect x="112" y="72" width="8" height="8" fill="#d91b1b"/>
  <rect x="120" y="72" width="8" height="8" fill="#d91b1b"/>
  <rect x="128" y="72" width="8" height="8" fill="#d91b1b"/>
  <rect x="136" y="72" width="8" height="8" fill="#d91b1b"/>
  <rect x="144" y="72" width="8" height="8" fill="#d91b1b"/>
  <rect x="152" y="72" width="8" height="8" fill="#000000"/>
  <rect x="160" y="72" width="8" height="8" fill="#ffffff"/>
  <rect x="168" y="72" width="8" height="8" fill="#ffffff"/>
  <rect x="176" y="72" width="8" height="8" fill="#000000"/>
  <rect x="184" y="72" width="8" height="8" fill="#000000"/>
  <rect x="72" y="80" width="8" height="8" fill="#000000"/>
  <rect x="80" y="80" width="8" height="8" fill="#ffffff"/>
  <rect x="88" y="80" width="8" height="8" fill="#ffffff"/>
  <rect x="96" y="80" width="8" height="8" fill="#ffffff"/>
  <rect x="104" y="80" width="8" height="8" fill="#ffffff"/>
  <rect x="112" y="80" width="8" height="8" fill="#000000"/>
  <rect x="120" y="80" width="8" height="8" fill="#d91b1b"/>
  <rect x="128" y="80" width="8" height="8" fill="#d91b1b"/>
  <rect x="136" y="80" width="8" height="8" fill="#d91b1b"/>
  <rect x="144" y="80" width="8" height="8" fill="#000000"/>
  <rect x="152" y="80" width="8" height="8" fill="#ffffff"/>
  <rect x="160" y="80" width="8" height="8" fill="#ffffff"/>
  <rect x="168" y="80" width="8" height="8" fill="#ffffff"/>
  <rect x="176" y="80" width="8" height="8" fill="#ffffff"/>
  <rect x="184" y="80" width="8" height="8" fill="#000000"/>
  <rect x="72" y="88" width="8" height="8" fill="#000000"/>
  <rect x="80" y="88" width="8" height="8" fill="#ffffff"/>
  <rect x="88" y="88" width="8" height="8" fill="#ffffff"/>
  <rect x="96" y="88" width="8" height="8" fill="#ffffff"/>
  <rect x="104" y="88" width="8" height="8" fill="#ffffff"/>
  <rect x="112" y="88" width="8" height="8" fill="#ffffff"/>
  <rect x="120" y="88" width="8" height="8" fill="#000000"/>
  <rect x="128" y="88" width="8" height="8" fill="#d91b1b"/>
  <rect x="136" y="88" width="8" height="8" fill="#000000"/>
  <rect x="144" y="88" width="8" height="8" fill="#ffffff"/>
  <rect x="152" y="88" width="8" height="8" fill="#ffffff"/>
  <rect x="160" y="88" width="8" height="8" fill="#ffffff"/>
  <rect x="168" y="88" width="8" height="8" fill="#ffffff"/>
  <rect x="176" y="88" width="8" height="8" fill="#ffffff"/>
  <rect x="184" y="88" width="8" height="8" fill="#000000"/>
  <rect x="72" y="96" width="8" height="8" fill="#000000"/>
  <rect x="80" y="96" width="8" height="8" fill="#ffffff"/>
  <rect x="88" y="96" width="8" height="8" fill="#ffffff"/>
  <rect x="96" y="96" width="8" height="8" fill="#ffffff"/>
  <rect x="104" y="96" width="8" height="8" fill="#ffffff"/>
  <rect x="112" y="96" width="8" height="8" fill="#ffffff"/>
  <rect x="120" y="96" width="8" height="8" fill="#ffffff"/>
  <rect x="128" y="96" width="8" height="8" fill="#000000"/>
  <rect x="136" y="96" width="8" height="8" fill="#ffffff"/>
  <rect x="144" y="96" width="8" height="8" fill="#ffffff"/>
  <rect x="152" y="96" width="8" height="8" fill="#ffffff"/>
  <rect x="160" y="96" width="8" height="8" fill="#ffffff"/>
  <rect x="168" y="96" width="8" height="8" fill="#ffffff"/>
  <rect x="176" y="96" width="8" height="8" fill="#ffffff"/>
  <rect x="184" y="96" width="8" height="8" fill="#000000"/>
  <rect x="72" y="104" width="8" height="8" fill="#000000"/>
  <rect x="80" y="104" width="8" height="8" fill="#ffffff"/>
  <rect x="88" y="104" width="8" height="8" fill="#ffffff"/>
  <rect x="96" y="104" width="8" height="8" fill="#ffffff"/>
  <rect x="104" y="104" width="8" height="8" fill="#ffffff"/>
  <rect x="112" y="104" width="8" height="8" fill="#ffffff"/>
  <rect x="120" y="104" width="8" height="8" fill="#ffffff"/>
  <rect x="128" y="104" width="8" height="8" fill="#000000"/>
  <rect x="136" y="104" width="8" height="8" fill="#ffffff"/>
  <rect x="144" y="104" width="8" height="8" fill="#ffffff"/>
  <rect x="152" y="104" width="8" height="8" fill="#ffffff"/>
  <rect x="160" y="104" width="8" height="8" fill="#ffffff"/>
  <rect x="168" y="104" width="8" height="8" fill="#ffffff"/>
  <rect x="176" y="104" width="8" height="8" fill="#ffffff"/>
  <rect x="184" y="104" width="8" height="8" fill="#000000"/>
  <rect x="80" y="112" width="8" height="8" fill="#000000"/>
  <rect x="88" y="112" width="8" height="8" fill="#000000"/>
  <rect x="96" y="112" width="8" height="8" fill="#ffffff"/>
  <rect x="104" y="112" width="8" height="8" fill="#ffffff"/>
  <rect x="112" y="112" width="8" height="8" fill="#ffffff"/>
  <rect x="120" y="112" width="8" height="8" fill="#000000"/>
  <rect x="128" y="112" width="8" height="8" fill="#d91b1b"/>
  <rect x="136" y="112" width="8" height="8" fill="#000000"/>
  <rect x="144" y="112" width="8" height="8" fill="#ffffff"/>
  <rect x="152" y="112" width="8" height="8" fill="#ffffff"/>
  <rect x="160" y="112" width="8" height="8" fill="#ffffff"/>
  <rect x="168" y="112" width="8" height="8" fill="#000000"/>
  <rect x="176" y="112" width="8" height="8" fill="#000000"/>
  <rect x="80" y="120" width="8" height="8" fill="#000000"/>
  <rect x="88" y="120" width="8" height="8" fill="#d91b1b"/>
  <rect x="96" y="120" width="8" height="8" fill="#000000"/>
  <rect x="104" y="120" width="8" height="8" fill="#000000"/>
  <rect x="112" y="120" width="8" height="8" fill="#000000"/>
  <rect x="120" y="120" width="8" height="8" fill="#d91b1b"/>
  <rect x="128" y="120" width="8" height="8" fill="#d91b1b"/>
  <rect x="136" y="120" width="8" height="8" fill="#d91b1b"/>
  <rect x="144" y="120" width="8" height="8" fill="#000000"/>
  <rect x="152" y="120" width="8" height="8" fill="#000000"/>
  <rect x="160" y="120" width="8" height="8" fill="#000000"/>
  <rect x="168" y="120" width="8" height="8" fill="#d91b1b"/>
  <rect x="176" y="120" width="8" height="8" fill="#000000"/>
  <rect x="88" y="128" width="8" height="8" fill="#000000"/>
  <rect x="96" y="128" width="8" height="8" fill="#d91b1b"/>
  <rect x="104" y="128" width="8" height="8" fill="#d91b1b"/>
  <rect x="112" y="128" width="8" height="8" fill="#d91b1b"/>
  <rect x="120" y="128" width="8" height="8" fill="#d91b1b"/>
  <rect x="128" y="128" width="8" height="8" fill="#d91b1b"/>
  <rect x="136" y="128" width="8" height="8" fill="#d91b1b"/>
  <rect x="144" y="128" width="8" height="8" fill="#d91b1b"/>
  <rect x="152" y="128" width="8" height="8" fill="#d91b1b"/>
  <rect x="160" y="128" width="8" height="8" fill="#d91b1b"/>
  <rect x="168" y="128" width="8" height="8" fill="#000000"/>
  <rect x="96" y="136" width="8" height="8" fill="#000000"/>
  <rect x="104" y="136" width="8" height="8" fill="#000000"/>
  <rect x="112" y="136" width="8" height="8" fill="#d91b1b"/>
  <rect x="120" y="136" width="8" height="8" fill="#d91b1b"/>
  <rect x="128" y="136" width="8" height="8" fill="#d91b1b"/>
  <rect x="136" y="136" width="8" height="8" fill="#d91b1b"/>
  <rect x="144" y="136" width="8" height="8" fill="#d91b1b"/>
  <rect x="152" y="136" width="8" height="8" fill="#000000"/>
  <rect x="160" y="136" width="8" height="8" fill="#000000"/>
</svg>
